<?xml version="1.0" encoding="utf-8"?>
<svg xmlns="http://www.w3.org/2000/svg" xmlns:xlink="http://www.w3.org/1999/xlink" width="250.84" height="157.09" viewBox="0 0 250.84 157.09">
  <defs>
    <style>
      .cls-1{mask:url(#mask);filter:url(#luminosity-noclip-4)}.cls-10,.cls-12,.cls-14,.cls-2,.cls-4,.cls-6,.cls-8{fill-rule:evenodd}.cls-10,.cls-12,.cls-14,.cls-2,.cls-4,.cls-6{mix-blend-mode:multiply}.cls-2{fill:url(#linear-gradient)}.cls-3{mask:url(#mask-2);filter:url(#luminosity-noclip-5)}.cls-4{fill:url(#linear-gradient-2)}.cls-5{mask:url(#mask-3);filter:url(#luminosity-noclip-6)}.cls-6{fill:url(#linear-gradient-3)}.cls-7{isolation:isolate}.cls-16,.cls-8{fill:#9c62a8}.cls-9{mask:url(#mask-4)}.cls-10,.cls-12,.cls-14{opacity:.55}.cls-10{fill:url(#linear-gradient-4)}.cls-11{mask:url(#mask-5)}.cls-12{fill:url(#linear-gradient-5)}.cls-13{mask:url(#mask-6)}.cls-14{fill:url(#linear-gradient-6)}.cls-15{fill:#231f20}.cls-17{filter:url(#luminosity-noclip-3)}.cls-18{filter:url(#luminosity-noclip-2)}.cls-19{filter:url(#luminosity-noclip)}
    </style>
    <filter id="luminosity-noclip" width="21.29" height="32766" x="56.86" y="-8118.33" color-interpolation-filters="sRGB" filterUnits="userSpaceOnUse">
      <feFlood flood-color="#fff" result="bg"/>
      <feBlend in="SourceGraphic" in2="bg"/>
    </filter>
    <linearGradient id="linear-gradient" x1="67.51" x2="67.51" y1="13.16" y2="69.21" gradientUnits="userSpaceOnUse">
      <stop offset=".05" stop-color="#fff"/>
      <stop offset=".1" stop-color="#cbcbcb"/>
      <stop offset=".16" stop-color="#969696"/>
      <stop offset=".22" stop-color="#686868"/>
      <stop offset=".27" stop-color="#434343"/>
      <stop offset=".33" stop-color="#252525"/>
      <stop offset=".39" stop-color="#111"/>
      <stop offset=".45" stop-color="#040404"/>
      <stop offset=".5"/>
      <stop offset=".55" stop-color="#040404"/>
      <stop offset=".61" stop-color="#111"/>
      <stop offset=".67" stop-color="#252525"/>
      <stop offset=".73" stop-color="#434343"/>
      <stop offset=".78" stop-color="#686868"/>
      <stop offset=".84" stop-color="#969696"/>
      <stop offset=".9" stop-color="#cbcbcb"/>
      <stop offset=".95" stop-color="#fff"/>
    </linearGradient>
    <filter id="luminosity-noclip-2" width="21.61" height="32766" x="172.78" y="-8118.33" color-interpolation-filters="sRGB" filterUnits="userSpaceOnUse">
      <feFlood flood-color="#fff" result="bg"/>
      <feBlend in="SourceGraphic" in2="bg"/>
    </filter>
    <linearGradient id="linear-gradient-2" x1="183.59" x2="183.59" y1="12.34" y2="67.51" xlink:href="#linear-gradient"/>
    <filter id="luminosity-noclip-3" width="133.85" height="32766" x="58.29" y="-8118.33" color-interpolation-filters="sRGB" filterUnits="userSpaceOnUse">
      <feFlood flood-color="#fff" result="bg"/>
      <feBlend in="SourceGraphic" in2="bg"/>
    </filter>
    <linearGradient id="linear-gradient-3" x1="58.29" x2="192.15" y1="40.14" y2="40.14" gradientUnits="userSpaceOnUse">
      <stop offset="0"/>
      <stop offset=".06" stop-color="#040404"/>
      <stop offset=".13" stop-color="#111"/>
      <stop offset=".2" stop-color="#252525"/>
      <stop offset=".27" stop-color="#434343"/>
      <stop offset=".33" stop-color="#686868"/>
      <stop offset=".4" stop-color="#969696"/>
      <stop offset=".47" stop-color="#cbcbcb"/>
      <stop offset=".53" stop-color="#fff"/>
      <stop offset=".58" stop-color="#cbcbcb"/>
      <stop offset=".64" stop-color="#969696"/>
      <stop offset=".7" stop-color="#686868"/>
      <stop offset=".76" stop-color="#434343"/>
      <stop offset=".83" stop-color="#252525"/>
      <stop offset=".88" stop-color="#111"/>
      <stop offset=".94" stop-color="#040404"/>
      <stop offset="1"/>
    </linearGradient>
    <filter id="luminosity-noclip-4" width="21.29" height="54.89" x="56.86" y="13.34" color-interpolation-filters="sRGB" filterUnits="userSpaceOnUse">
      <feFlood flood-color="#fff" result="bg"/>
      <feBlend in="SourceGraphic" in2="bg"/>
    </filter>
    <mask id="mask-4" width="21.29" height="54.89" x="56.86" y="13.34" maskUnits="userSpaceOnUse">
      <g class="cls-1">
        <path d="M61 13.42c-3.94-.65-4.15 2.93-4.15 2.93V64c0 2.4 5.4 4.19 5.4 4.19L78.15 58V23.82z" class="cls-2"/>
      </g>
    </mask>
    <linearGradient id="linear-gradient-4" x1="67.51" x2="67.51" y1="13.16" y2="69.21" gradientUnits="userSpaceOnUse">
      <stop offset=".05" stop-color="#231f20"/>
      <stop offset=".07" stop-color="#373435"/>
      <stop offset=".13" stop-color="#6c696a"/>
      <stop offset=".2" stop-color="#999797"/>
      <stop offset=".26" stop-color="#bebdbd"/>
      <stop offset=".32" stop-color="#dadada"/>
      <stop offset=".38" stop-color="#efeeee"/>
      <stop offset=".44" stop-color="#fbfbfb"/>
      <stop offset=".5" stop-color="#fff"/>
      <stop offset=".56" stop-color="#fbfbfb"/>
      <stop offset=".62" stop-color="#efeeee"/>
      <stop offset=".68" stop-color="#dadada"/>
      <stop offset=".74" stop-color="#bebdbd"/>
      <stop offset=".8" stop-color="#999797"/>
      <stop offset=".87" stop-color="#6c696a"/>
      <stop offset=".93" stop-color="#373435"/>
      <stop offset=".95" stop-color="#231f20"/>
    </linearGradient>
    <filter id="luminosity-noclip-5" width="21.61" height="55.5" x="172.78" y="12.7" color-interpolation-filters="sRGB" filterUnits="userSpaceOnUse">
      <feFlood flood-color="#fff" result="bg"/>
      <feBlend in="SourceGraphic" in2="bg"/>
    </filter>
    <mask id="mask-5" width="21.61" height="55.5" x="172.78" y="12.7" maskUnits="userSpaceOnUse">
      <g class="cls-3">
        <path d="M172.78 23.24v34.52l16 10.45s5.61-1.85 5.61-4.25V15s0-3-4.15-2.18z" class="cls-4"/>
      </g>
    </mask>
    <linearGradient id="linear-gradient-5" x1="183.59" x2="183.59" y1="12.34" y2="67.51" xlink:href="#linear-gradient-4"/>
    <filter id="luminosity-noclip-6" width="133.85" height="79.32" x="58.29" y=".47" color-interpolation-filters="sRGB" filterUnits="userSpaceOnUse">
      <feFlood flood-color="#fff" result="bg"/>
      <feBlend in="SourceGraphic" in2="bg"/>
    </filter>
    <mask id="mask-6" width="133.85" height="79.32" x="58.29" y=".47" maskUnits="userSpaceOnUse">
      <g class="cls-5">
        <path d="M83.15 1l105.42 64.78s2.49 1.55 3.57.89l-20.73 12.92a4.44 4.44 0 0 1-3.82-.53L61.9 14.1s-2.09-1.21-3.61-.27L78.86 1.09s2.43-1.3 4.29-.09z" class="cls-6"/>
      </g>
    </mask>
    <linearGradient id="linear-gradient-6" x1="58.29" x2="192.15" y1="40.14" y2="40.14" gradientUnits="userSpaceOnUse">
      <stop offset="0" stop-color="#fff"/>
      <stop offset=".07" stop-color="#fbfbfb"/>
      <stop offset=".14" stop-color="#efeeee"/>
      <stop offset=".21" stop-color="#dadada"/>
      <stop offset=".28" stop-color="#bebdbd"/>
      <stop offset=".36" stop-color="#999797"/>
      <stop offset=".43" stop-color="#6c696a"/>
      <stop offset=".5" stop-color="#373435"/>
      <stop offset=".53" stop-color="#231f20"/>
      <stop offset=".55" stop-color="#373435"/>
      <stop offset=".62" stop-color="#6c696a"/>
      <stop offset=".68" stop-color="#999797"/>
      <stop offset=".75" stop-color="#bebdbd"/>
      <stop offset=".81" stop-color="#dadada"/>
      <stop offset=".88" stop-color="#efeeee"/>
      <stop offset=".94" stop-color="#fbfbfb"/>
      <stop offset="1" stop-color="#fff"/>
    </linearGradient>
  </defs>
  <g class="cls-7">
    <g id="Layer_1">
      <path d="M61 13.42a3.24 3.24 0 0 0-4.15 2.93V64c0 2.4 5.4 4.19 5.4 4.19L78.15 58V23.82z" class="cls-8"/>
      <g class="cls-9">
        <path d="M61 13.42c-3.94-.65-4.15 2.93-4.15 2.93V64c0 2.4 5.4 4.19 5.4 4.19L78.15 58V23.82z" class="cls-10"/>
      </g>
      <path d="M172.78 23.24v34.52L189 68.11s5.4-1.83 5.4-4.16V15.17s.06-3.26-4.15-2.33z" class="cls-8"/>
      <g class="cls-11">
        <path d="M172.78 23.24v34.52l16 10.45s5.61-1.85 5.61-4.25V15s0-3-4.15-2.18z" class="cls-12"/>
      </g>
      <path d="M83.15 1l105.42 64.78s2.49 1.55 3.57.89l-20.73 12.92a4.44 4.44 0 0 1-3.82-.53L61.9 14.1s-2.09-1.21-3.61-.27L78.86 1.09s2.43-1.3 4.29-.09z" class="cls-8"/>
      <g class="cls-13">
        <path d="M83.15 1l105.42 64.78s2.49 1.55 3.57.89l-20.73 12.92a4.44 4.44 0 0 1-3.82-.53L61.9 14.1s-2.09-1.21-3.61-.27L78.86 1.09s2.43-1.3 4.29-.09z" class="cls-14"/>
      </g>
      <path d="M17.13 88.77l15.41 33.48h-5.59l-5-10.92h-14l-5.2 10.92H0l15.76-33.48zm-8.25 20.44h12.05L15 96.27zm27.89-19.68h3.08l21.45 23.91h.21V89.53h2.42V123h-1.27L39.42 96.41h-.19v25.84h-2.46zm48.51-.76l15.41 33.48H95.1l-5-10.92h-14l-5.2 10.92h-2.75l15.77-33.48zM77 109.21h12.09l-5.95-12.94zm27.92-19.68H108l21.45 23.91h.21V89.53h2.42V123h-1.27l-23.23-26.59h-.19v25.84h-2.47zm61.42 0v2.11H154.5v30.61H149V91.64h-11.87v-2.11zm29.01 0l11.35 16.58L218 89.53h3l-12.7 18.58v14.14h-5.5v-13.63l-13.09-19.1zm40.08-.76l15.41 33.48h-5.59l-5-10.92h-14l-5.17 10.92h-2.75l15.76-33.48zm-8.25 20.44h12.05l-5.93-12.94zM177.9 88.77l15.41 33.48h-5.59l-5-10.92h-14l-5.17 10.92h-2.75l15.76-33.48zm-8.25 20.44h12.05l-5.94-12.94z" class="cls-15"/>
      <path d="M83.25 131.67h2a3.09 3.09 0 0 1 1.93.4 2.13 2.13 0 0 1 .79 1.76c0 1.3-.79 2-2.27 2h-.2l3.21 3.78h-1.27l-3.07-3.78h-.14v3.78h-1zm1 3.45H85c1.32 0 2-.18 2-1.27s-.63-1.37-2-1.37h-.76zm5.29-3.45H94v.86h-3.46v2.27H94v.88h-3.46v3H94v.88h-4.46zm10.83 5.7a2.71 2.71 0 0 1-5.26.59l.9-.42a1.67 1.67 0 0 0 1.67 1.46 1.51 1.51 0 0 0 1.68-1.47c0-.71-.43-1.23-1.3-1.58l-1-.41a2.2 2.2 0 0 1-1.66-2.09 2.11 2.11 0 0 1 2.36-2 2.28 2.28 0 0 1 2.17 1.2l-.82.5a1.62 1.62 0 0 0-1.42-.91 1.17 1.17 0 0 0-1.28 1.15c0 .56.36 1 1.13 1.27l1.2.5a2.27 2.27 0 0 1 1.63 2.21zm8.63 1.21a4.75 4.75 0 0 1-6.36 0 3.95 3.95 0 0 1 0-5.88 4.79 4.79 0 0 1 6.36 0 4 4 0 0 1 0 5.88zm-.75-.63a3.11 3.11 0 0 0 1-2.3 3.15 3.15 0 0 0-1-2.33 3.58 3.58 0 0 0-4.86 0 3.17 3.17 0 0 0-1 2.33 3.13 3.13 0 0 0 1 2.3 3.55 3.55 0 0 0 4.86 0zm3.67-6.28h2a3.09 3.09 0 0 1 1.93.4 2.13 2.13 0 0 1 .79 1.76c0 1.3-.79 2-2.27 2h-.18l3.21 3.78h-1.27l-3.13-3.8h-.14v3.78h-1zm1 3.45h.76c1.32 0 2-.18 2-1.27s-.63-1.37-2-1.37h-.76zm6.76-2.55h-2.37v-.9h5.75v.9h-2.36v7h-1zm9.2 4.8a2.71 2.71 0 0 1-5.26.59l.9-.42a1.67 1.67 0 0 0 1.67 1.46 1.51 1.51 0 0 0 1.68-1.47c0-.71-.43-1.23-1.3-1.58l-1-.41a2.2 2.2 0 0 1-1.66-2.09 2.11 2.11 0 0 1 2.36-2 2.28 2.28 0 0 1 2.17 1.2l-.82.5a1.62 1.62 0 0 0-1.42-.91 1.17 1.17 0 0 0-1.28 1.15c0 .56.36 1 1.13 1.27l1.2.5a2.27 2.27 0 0 1 1.63 2.21zm9.32 1.3a3.57 3.57 0 0 1-2.55 1.06 2.26 2.26 0 0 1-2.49-2.24c0-1 .65-1.75 1.93-2.44l-.34-.37a1.86 1.86 0 0 1-.54-1.32 1.72 1.72 0 0 1 1.93-1.66 1.68 1.68 0 0 1 1.9 1.66c0 .8-.49 1.4-1.53 2l1.83 2.08a11.82 11.82 0 0 0 1-1.23l.61.63a7.38 7.38 0 0 1-1.07 1.23l1.34 1.52H139zm-2.58-3l-.25.15c-.75.49-1.21.91-1.21 1.6a1.46 1.46 0 0 0 1.54 1.46 3 3 0 0 0 2-.9zm.72-1.17a1.33 1.33 0 0 0 .79-1.14.89.89 0 0 0-1-.9.92.92 0 0 0-1 .92 1.09 1.09 0 0 0 .31.74l.52.58zm13.37 2.87a2.42 2.42 0 0 1-2.69 2.43 2.45 2.45 0 0 1-2.57-1.84l.91-.42A1.67 1.67 0 0 0 147 139a1.51 1.51 0 0 0 1.68-1.47c0-.71-.43-1.23-1.3-1.58l-1-.41a2.2 2.2 0 0 1-1.66-2.09 2.11 2.11 0 0 1 2.36-2 2.28 2.28 0 0 1 2.17 1.2l-.82.5a1.62 1.62 0 0 0-1.42-.91 1.17 1.17 0 0 0-1.28 1.15c0 .56.36 1 1.13 1.27l1.2.5a2.27 2.27 0 0 1 1.65 2.21zm2.29 2.22h-1v-7.92h1.76a3.69 3.69 0 0 1 2.11.4 2.28 2.28 0 0 1 0 3.57 3.67 3.67 0 0 1-2.11.4H152zm.5-4.41c1.45 0 2.17-.18 2.17-1.27s-.72-1.37-2.17-1.37h-.5v2.65zm10.33 4.41h-1.08l-1.09-2.43h-3.28l-1.09 2.43h-1.09l3.81-8.23zm-5.16-3.23h2.68l-1.35-2.92zm10.74 1.01a2.71 2.71 0 0 1-5.26.59l.9-.42a1.67 1.67 0 0 0 1.67 1.46 1.51 1.51 0 0 0 1.68-1.47c0-.71-.43-1.23-1.3-1.58l-1-.41a2.2 2.2 0 0 1-1.66-2.09 2.11 2.11 0 0 1 2.36-2 2.28 2.28 0 0 1 2.17 1.2l-.82.5a1.62 1.62 0 0 0-1.42-.91 1.17 1.17 0 0 0-1.28 1.15c0 .56.36 1 1.13 1.27l1.2.5a2.27 2.27 0 0 1 1.63 2.21z" class="cls-16"/>
      <path d="M199.42 10.37h-1.13v-.45H201v.45h-1.13v3.55h-.48zm3.1.83l-.5 2.72h-.47l.81-4.16 1.4 3.31 1.4-3.31.81 4.16h-.46L205 11.2l-1.24 2.88z" class="cls-15"/>
      <path d="M190 13.48L83.58 79.3a4.33 4.33 0 0 1-4.33.11L59.41 67c1.23.44 3.43-.82 3.43-.82L168.74.45a4.48 4.48 0 0 1 4.64.41l20 12.32a4.22 4.22 0 0 0-3.38.3z" class="cls-8"/>
      <path d="M103.61 154.55a2.71 2.71 0 0 1-5.26.59l.9-.42a1.67 1.67 0 0 0 1.67 1.46 1.51 1.51 0 0 0 1.68-1.47c0-.71-.43-1.23-1.3-1.58l-1-.41a2.2 2.2 0 0 1-1.66-2.09 2.11 2.11 0 0 1 2.36-2 2.28 2.28 0 0 1 2.17 1.2l-.82.5a1.62 1.62 0 0 0-1.42-.91 1.17 1.17 0 0 0-1.28 1.15c0 .56.36 1 1.13 1.27l1.2.5a2.27 2.27 0 0 1 1.63 2.21zm1.33-5.69h2a3.09 3.09 0 0 1 1.93.4 2.13 2.13 0 0 1 .79 1.76c0 1.3-.79 2-2.27 2h-.18l3.21 3.78h-1.27l-3.1-3.8h-.14v3.78h-1zm1 3.45h.76c1.32 0 2-.18 2-1.27s-.63-1.37-2-1.37h-.76zm5.29-3.45h1v7.92h-1zm6.5 0h1v7h3.17v.9h-4.17zm11.83 7.92h-1.08l-1.09-2.43h-3.28l-1.11 2.43h-1.08l3.81-8.23zm-5.16-3.23h2.68l-1.34-2.91zm6.03-5l6.15 6.33v-6h1v8.23l-6.14-6.26v5.95h-1zm9.11.31h1v3.52l3.52-3.52h1.2l-3.61 3.57 4 4.35h-1.29l-3.78-4.27v4.27h-1z" class="cls-16"/>
      <path d="M153 156.78h-1.08l-1.09-2.43h-3.28l-1.09 2.43h-1.08l3.81-8.23zm-5.16-3.23h2.68l-1.34-2.91z" class="cls-16"/>
    </g>
  </g>
</svg>
